<?xml version="1.0" encoding="utf-8"?>

<!-- Uploaded to: SVG Repo, www.svgrepo.com, Generator: SVG Repo Mixer Tools -->
<svg fill="#000000" height="800px" width="800px" version="1.1" id="Icons" xmlns="http://www.w3.org/2000/svg" xmlns:xlink="http://www.w3.org/1999/xlink" 
	 viewBox="0 0 32 32" xml:space="preserve">
<path d="M29,2H3C2.4,2,2,2.4,2,3v10v16c0,0.6,0.4,1,1,1h26c0.6,0,1-0.4,1-1V13V3C30,2.4,29.6,2,29,2z M6,6c0-0.6,0.4-1,1-1h10
	c0.6,0,1,0.4,1,1v4c0,0.6-0.4,1-1,1H7c-0.6,0-1-0.4-1-1V6z M8,28H4V14h1v7c0,0.6,0.4,1,1,1h2V28z M15,28h-5v-6c0.6,0,1-0.4,1-1v-7h2
	v7c0,0.6,0.4,1,1,1h1V28z M22,28h-5v-6h1c0.6,0,1-0.4,1-1v-7h2v7c0,0.6,0.4,1,1,1V28z M20,8c0-1.7,1.3-3,3-3s3,1.3,3,3s-1.3,3-3,3
	S20,9.7,20,8z M28,28h-4v-6h2c0.6,0,1-0.4,1-1v-7h1V28z"/>
</svg>